<svg
viewBox="0 0 157 96"
fill="none"
xmlns="http://www.w3.org/2000/svg">
<g clip-path="url(#clip0_3319_238)">
    <path
    d="M111.007 25.731C106.333 25.8651 103.47 28.3694 102.486 29.1519C101.189 30.2028 93.0929 36.9329 91.751 38.0509C91.013 38.7888 86.5445 42.2748 86.4281 47.084C86.314 51.8002 91.4827 57.6823 91.4827 57.6823C91.4827 57.6823 94.6138 61.6176 97.9238 64.7479C101.838 68.0794 105.707 70.919 109.688 70.8743C113.669 70.8295 116.98 67.931 118.321 66.9167C120.041 65.6797 125.709 60.9164 128.43 58.6885C130.427 56.8697 133.395 54.3635 133.395 49.2752C133.395 44.0093 129.526 39.4148 129.101 38.9453C126.556 35.9673 123.862 33.0393 120.96 30.1804C120.96 30.1804 117.179 25.8396 111.007 25.731ZM110.751 27.3195C116.458 27.4199 120.128 31.5447 120.128 31.5447C122.812 34.1883 125.281 36.9629 127.634 39.7167C128.027 40.1509 131.705 44.433 131.705 49.3025C131.705 54.0077 128.076 57.11 126.893 57.9856C124.141 59.9411 119.14 64.3101 117.688 65.5154C116.938 66.0897 113.386 69.1336 109.705 69.175C105.154 69.0582 102.414 66.7327 98.7945 63.652C95.7336 60.7574 92.7118 57.0079 92.7118 57.0079C92.7118 57.0079 87.8532 51.4895 87.9587 47.1284C88.0664 42.6812 92.5464 39.347 93.2289 38.6647C94.4698 37.6309 101.798 31.4866 102.998 30.5148C103.908 29.7911 106.429 27.4436 110.751 27.3195Z"
    fill="url(#paint0_linear_3319_238)"
    />
    <path
    d="M115.724 18.6409C108.912 18.8558 103.039 22.5623 101.425 23.6027C99.2933 24.9997 87.3502 33.3993 85.1372 34.8851C83.8908 35.8645 77.9425 39.7398 76.1807 47.4943C74.8917 53.7173 79.9819 61.4584 79.9819 61.4584C79.9819 61.4584 83.9222 67.81 87.9782 71.9131C92.5882 76.4484 96.9264 78.3372 103.405 78.4696C109.191 78.3784 115.839 75.0747 119.401 72.8087C122.997 70.7359 129.017 66.6349 133.4 63.4996C135.56 61.9692 141.242 57.5455 142.782 49.8228C144.389 41.7589 138.332 33.4616 137.78 32.6716C136.547 30.8352 132.677 26.5327 131.155 25.0772C130.111 24.176 124.652 18.7343 115.724 18.6409ZM115.243 20.6756C123.498 20.7619 127.125 24.5159 128.311 25.4803C132.08 28.7408 133.199 30.22 136.525 34.7353C137.182 35.5738 141.711 42.9839 140.551 49.4083C139.43 55.616 135.059 59.4499 131.949 61.9743C126.685 66.2208 118.427 71.0588 117.535 71.6331C112.801 74.5471 108.812 76.3657 103.462 76.45C98.1598 76.392 94.4335 75.5219 88.652 69.8108C84.9013 66.0166 82.0285 60.8734 82.0285 60.8734C82.0285 60.8734 76.9972 53.3173 78.1892 47.5628C79.4048 41.6946 85.6544 36.6531 86.9336 35.7948C88.9799 34.4208 99.4601 27.0205 101.432 25.7287C102.924 24.7666 108.943 20.8742 115.243 20.6756Z"
    fill="url(#paint1_linear_3319_238)"
    />
    <path
    d="M106.486 0.693219C96.9918 3.15967 91.9808 7.49492 86.9948 12.8665C79.6484 20.6856 74.4082 28.3796 71.796 31.8199C69.6422 34.7447 61.7392 45.8614 62.9206 58.283C63.8033 67.4603 70.3783 75.8368 72.1495 77.481C72.1495 77.481 81.1139 85.969 88.643 90.9162C97.1435 96.3448 107.219 96.7074 114.689 95.157C123.488 92.9161 130.177 86.7664 135.419 81.2624C139.562 76.9893 143.148 73.2429 147.864 66.7635C149.972 63.7642 156.783 55.2074 156.995 42.9504C157.293 25.6642 145.15 16.314 144.022 15.2897C140.081 11.5328 132.662 6.59521 129.874 4.86642C128.005 3.82787 119.093 -1.97038 106.486 0.693219ZM105.816 3.68387C117.004 1.31023 121.336 3.94 126.364 6.10297C133.115 9.86265 136.582 12.6638 143.267 18.4653C147.884 22.7558 153.623 30.1658 154.018 42.1693C154.341 51.9996 150.142 58.6469 146.884 63.4521C141.358 71.5454 135.866 76.9861 133.759 79.2437C129.368 83.6007 124.023 89.4771 115.297 92.1082C107.807 93.6865 99.2667 94.3601 89.7659 88.4338C82.8036 83.859 73.9799 75.5714 73.9799 75.5714C70.6588 71.7137 66.1947 65.3093 65.3199 56.2088C64.4277 46.9287 68.8319 40.3807 72.4972 35.0725C74.8313 31.8402 82.0545 22.3111 84.2565 19.7328C88.0998 15.3454 94.3079 6.52361 105.816 3.68387Z"
    fill="url(#paint2_linear_3319_238)"
    />
    <path
    d="M4.10931 33.0382H32.9601L13.7405 56.2753H31.3335V62.78H0L19.348 39.3717H4.10931V33.0382Z"
    fill="#0A0A0A"
    />
    <path
    d="M48.1037 32.2008C36.6624 32.2008 33.8777 42.2147 33.8777 48.0874C33.8777 52.9305 36.1476 63.7015 48.8302 63.7015C58.3347 63.7015 61.6636 56.4996 62.6927 55.0471L56.8208 51.8095C55.4285 53.8067 53.674 57.5286 48.8606 57.5286C43.4124 57.4983 41.3841 53.3224 41.0209 49.5097H62.3901C62.6625 45.9803 62.602 32.2008 48.1037 32.2008ZM48.6485 38.4041C54.3086 38.4041 55.3982 43.9115 55.3982 43.9115H41.5357C41.5357 43.9115 42.9884 38.4041 48.6485 38.4041Z"
    fill="#0A0A0A"
    />
    <path
    d="M67.4147 62.7938H74.3158V51.295L75.4357 50.2359L85.2425 62.7938H94.1715L80.2483 45.5456L93.1727 33.0483H84.0015L74.346 42.6104V11.2006H67.4147V62.7938Z"
    fill="#0A0A0A"
    />
    <path
    d="M109.608 32.2312C109.583 32.2312 108.801 32.2315 108.349 32.2315C102.749 32.2315 93.4752 37.2293 93.4752 47.4823C93.4752 58.5038 102.147 63.6405 108.618 63.6405C109.162 63.6405 109.891 63.6411 109.941 63.6411C116.419 63.6411 125.196 58.3758 125.196 48.0874C125.196 37.8596 117.024 32.2312 109.608 32.2312ZM109.306 38.4041C115.056 38.4041 118.204 42.5501 118.204 48.0574C118.204 53.5647 114.759 57.5575 109.402 57.5575C104.044 57.5575 100.437 53.3527 100.437 48.027C100.437 42.7012 103.706 38.4041 109.306 38.4041Z"
    fill="#0A0A0A"
    />
</g>
<defs>
    <linearGradient
    id="paint0_linear_3319_238"
    x1="132.288"
    y1="47.544"
    x2="87.0899"
    y2="47.0378"
    gradientUnits="userSpaceOnUse">
    <stop stop-color="#FFE459" />
    <stop offset="0.804416" stop-color="#DD9B34" />
    <stop offset="1" stop-color="#DB9531" />
    </linearGradient>
    <linearGradient
    id="paint1_linear_3319_238"
    x1="139.6"
    y1="38.0607"
    x2="77.1022"
    y2="48.1845"
    gradientUnits="userSpaceOnUse">
    <stop offset="0.293375" stop-color="#FFE459" />
    <stop offset="0.570978" stop-color="#DD9B34" />
    <stop offset="0.684543" stop-color="#DB9531" />
    <stop offset="0.905363" stop-color="#A47327" />
    </linearGradient>
    <linearGradient
    id="paint2_linear_3319_238"
    x1="154.782"
    y1="32.116"
    x2="64.9608"
    y2="63.2455"
    gradientUnits="userSpaceOnUse">
    <stop offset="0.293375" stop-color="#FFE459" />
    <stop offset="0.570978" stop-color="#DD9B34" />
    <stop offset="0.684543" stop-color="#DB9531" />
    <stop offset="0.905363" stop-color="#A47327" />
    </linearGradient>
    <clipPath id="clip0_3319_238">
    <rect width="157" height="95.9544" fill="white" />
    </clipPath>
</defs>
</svg>